<?xml version="1.0" encoding="UTF-8" standalone="no"?>
<!-- Created with Inkscape (http://www.inkscape.org/) -->

<svg
   width="105.83334mm"
   height="105.83334mm"
   viewBox="0 0 105.83333 105.83334"
   version="1.1"
   id="svg1"
   xml:space="preserve"
   xmlns="http://www.w3.org/2000/svg"
   xmlns:svg="http://www.w3.org/2000/svg"><defs
     id="defs1" /><g
     id="layer1"
     transform="translate(-18.265684,115.80443)"><path
       style="fill:#000000"
       d="m 75.381303,-20.57627 c -0.516078,-0.516079 -0.123058,-0.824438 0.879413,-0.689979 1.17412,0.157483 1.854615,-0.219499 1.854615,-1.027422 0,-0.418357 -0.08871,-0.458603 -0.511772,-0.232186 -1.45328,0.777771 -2.927811,-0.314476 -2.927811,-2.168752 0,-2.007056 1.113324,-2.992231 3.052783,-2.701391 l 1.18055,0.177035 v 2.76011 c 0,2.577709 -0.04292,2.803027 -0.649431,3.409542 -0.466278,0.466278 -0.938861,0.649431 -1.675695,0.649431 -0.564444,0 -1.105638,-0.07937 -1.202652,-0.176388 z m 2.302426,-2.808209 c 0.36407,-0.266214 0.445729,-0.648689 0.381299,-1.785938 -0.07988,-1.409965 -0.103443,-1.449256 -0.916467,-1.528187 -0.984173,-0.09555 -1.679063,0.681291 -1.679063,1.877071 0,1.579907 1.069558,2.274059 2.214231,1.437054 z m -15.707982,0.471056 c 0,-0.48507 0.141111,-0.661459 0.529166,-0.661459 0.388056,0 0.529167,0.176389 0.529167,0.661459 0,0.485069 -0.141111,0.661458 -0.529167,0.661458 -0.388055,0 -0.529166,-0.176389 -0.529166,-0.661458 z m 3.108854,0.479074 c -0.254661,-0.06655 -0.463021,-0.354584 -0.463021,-0.640075 0,-0.440995 0.08144,-0.475491 0.541392,-0.229332 0.297766,0.15936 0.922844,0.252846 1.389063,0.207747 1.24741,-0.120666 1.177716,-1.02899 -0.107147,-1.396438 -1.822006,-0.521061 -2.321564,-1.494596 -1.294141,-2.522018 0.575114,-0.575114 1.839203,-0.696279 2.663228,-0.255275 0.903013,0.483278 0.549847,0.769015 -0.87729,0.709792 -1.212974,-0.05034 -1.389063,0.0067 -1.389063,0.449893 0,0.376854 0.34063,0.615295 1.322917,0.926042 1.184486,0.374713 1.331394,0.505827 1.40393,1.252985 0.128986,1.328607 -1.288322,1.993605 -3.189868,1.496679 z m 5.576932,-0.942095 c -0.233304,-0.618464 -0.673967,-1.749558 -0.979252,-2.513542 -0.51825,-1.296938 -0.523973,-1.389063 -0.08629,-1.389063 0.342828,0 0.641317,0.49759 1.111007,1.852084 0.353231,1.018646 0.719402,1.852083 0.813715,1.852083 0.09431,0 0.465799,-0.803672 0.825526,-1.785937 0.399817,-1.091736 0.823502,-1.818823 1.089993,-1.870539 0.373315,-0.07245 0.337343,0.174629 -0.250389,1.719792 -0.377483,0.992416 -0.803639,2.131814 -0.947013,2.531997 -0.390816,1.090833 -1.081659,0.917005 -1.577296,-0.396875 z m 0.04546,-11.065618 c -4.778931,-0.383193 -10.37391,-2.188942 -14.395141,-4.645955 -5.650209,-3.452334 -10.816662,-9.093778 -13.47437,-14.713169 -1.219978,-2.579489 -2.437113,-6.482336 -2.823338,-9.053271 -0.40623,-2.704107 -0.40623,-8.430502 0,-11.134608 1.65657,-11.027085 9.682602,-21.204517 20.348339,-25.802767 5.092976,-2.195698 10.730029,-3.061378 16.928052,-2.599618 8.378082,0.62418 15.523414,4.026537 21.793515,10.37731 3.805976,3.85494 6.422816,8.19705 8.079306,13.40592 1.05704,3.323914 1.43197,5.991019 1.43197,10.186459 0,1.90393 -0.14234,4.409217 -0.31632,5.567304 -1.65657,11.027084 -9.682598,21.204516 -20.348335,25.802767 -5.214571,2.248124 -10.93081,3.114214 -17.223678,2.609628 z m 8.893872,-2.506967 c 10.733803,-1.871818 20.174023,-9.322485 24.346241,-19.215204 0.50819,-1.204947 1.23683,-3.324729 1.61922,-4.710628 0.63781,-2.311608 0.69526,-2.935195 0.69526,-7.5469 0,-4.611705 -0.0575,-5.235292 -0.69526,-7.5469 -2.06239,-7.474785 -6.11236,-13.477049 -12.127757,-17.973983 -12.869986,-9.621226 -31.180576,-8.184426 -42.363085,3.324157 -4.244689,4.36846 -6.701264,8.67914 -8.34866,14.649826 -0.637805,2.311608 -0.695252,2.935195 -0.695252,7.5469 0,4.611705 0.05745,5.235292 0.695252,7.5469 0.382389,1.385899 1.111038,3.505681 1.619221,4.710628 4.130633,9.794111 13.551943,17.288044 24.137676,19.199679 2.840663,0.512984 8.221415,0.520498 11.117144,0.01552 z m 0.3004,-13.383307 c -0.545703,-0.445798 -0.992188,-0.970864 -0.992188,-1.166814 0,-0.195949 -0.488256,-0.749948 -1.085015,-1.231107 -1.346163,-1.085397 -2.535794,-2.23492 -3.460059,-3.343407 -0.798271,-0.95738 -2.193267,-1.632471 -3.373307,-1.632471 -0.702687,0 -0.829052,0.126337 -1.124726,1.124479 -0.38863,1.311942 -0.209186,1.076668 -3.276721,4.296228 -2.292568,2.406186 -2.447231,2.516794 -3.519219,2.516794 -0.954385,0 -1.254335,-0.145253 -2.015348,-0.975944 -0.708621,-0.773502 -0.953965,-1.33605 -1.182775,-2.711979 -0.158782,-0.95482 -0.487283,-2.420646 -0.730003,-3.257391 -0.425273,-1.466077 -0.473894,-1.521354 -1.338165,-1.521354 -0.710163,0 -1.144702,0.247845 -2.087482,1.190625 -2.039949,2.039949 -3.265515,1.533797 -3.265515,-1.348639 0,-0.650044 -0.185278,-1.624559 -0.411729,-2.165588 -0.418923,-1.00088 -0.662856,-4.626472 -0.333479,-4.956519 0.416177,-0.417021 0.745766,0.25677 0.753813,1.541048 0.01067,1.703501 0.649327,6.892763 0.897782,7.294772 0.336109,0.543835 0.935799,0.306281 2.056858,-0.814777 0.969957,-0.969957 1.263244,-1.112855 2.307914,-1.12448 1.110635,-0.01236 1.229187,0.05332 1.647496,0.912725 0.247909,0.509323 0.52658,1.402292 0.619269,1.984375 0.09269,0.582083 0.357136,1.86803 0.587661,2.857658 0.348225,1.494909 0.544599,1.864205 1.16072,2.182813 1.529297,0.79083 2.659258,0.342487 4.873697,-1.933773 0.915152,-0.940702 1.817912,-2.236018 2.37075,-3.401649 1.1556,-2.436522 1.768062,-2.700917 3.760264,-1.623278 1.159524,0.627219 2.242609,1.557241 3.803861,3.266295 0.519108,0.568251 1.173952,1.216013 1.455208,1.439471 0.281257,0.223457 0.942389,0.926754 1.469183,1.562881 0.879659,1.062227 1.076709,1.166455 2.415092,1.277444 1.227244,0.101773 1.644196,0.01131 2.641345,-0.573056 1.854277,-1.086679 2.215299,-1.596474 1.853281,-2.616998 -0.165899,-0.467669 -0.379124,-1.452276 -0.473833,-2.188015 -0.166247,-1.291474 -0.139379,-1.366522 0.777389,-2.171455 0.522272,-0.458562 1.534872,-1.007559 2.250221,-1.219995 1.145547,-0.340191 1.437569,-0.339069 2.449039,0.0094 0.631622,0.217611 1.298787,0.520463 1.482587,0.673004 0.50203,0.416648 2.916448,0.09306 3.724595,-0.499184 1.159059,-0.849404 1.633064,-2.095014 1.633526,-4.292642 3.53e-4,-1.682746 -0.09298,-2.081846 -0.661048,-2.826618 -0.805917,-1.056612 -0.833191,-1.277634 -0.109892,-0.890536 0.948686,0.507722 1.372999,1.988015 1.248696,4.356304 -0.131076,2.497311 -0.664528,3.611217 -2.042592,4.265151 -1.603013,0.76068 -2.891043,0.756909 -4.631796,-0.01356 -1.523885,-0.674481 -1.603661,-0.682418 -2.910417,-0.289558 -2.584697,0.777059 -3.318601,2.084258 -2.401916,4.278193 0.761171,1.821739 0.429792,2.802154 -1.19111,3.524011 -0.363536,0.161898 -0.95863,0.466086 -1.322432,0.675974 -0.363802,0.209887 -1.256771,0.379376 -1.984376,0.376642 -1.07946,-0.0041 -1.505509,-0.154135 -2.315104,-0.815513 z M 59.352244,-73.295693 c -1.296942,-1.211526 -1.903813,-2.87513 -1.903813,-5.218894 0,-3.410026 1.636971,-5.914467 3.865857,-5.914467 1.333278,0 2.344481,0.792334 3.173363,2.486508 0.565673,1.156193 0.692494,1.791059 0.692494,3.466617 0,3.506835 -1.621045,5.953126 -3.944865,5.953126 -0.801404,0 -1.254927,-0.186148 -1.883036,-0.77289 z m 20.902085,-0.264583 c -1.296942,-1.211526 -1.903812,-2.875131 -1.903812,-5.218894 0,-3.410026 1.636971,-5.914468 3.865856,-5.914468 1.333279,0 2.344481,0.792334 3.173364,2.486508 0.565672,1.156193 0.692493,1.79106 0.692493,3.466618 0,3.506835 -1.621045,5.953125 -3.944865,5.953125 -0.801404,0 -1.254926,-0.186147 -1.883036,-0.772889 z"
       id="path1" /></g></svg>
